<svg width="388" height="628" viewBox="0 0 388 628" fill="none" xmlns="http://www.w3.org/2000/svg">
<g clip-path="url(#clip0_1_59)">
<rect x="4" y="2" width="376" height="556" rx="6" fill="#EAE1D9" stroke="white" stroke-width="4"/>
<path d="M321.5 652H70.5L-56.5 147L469.5 -62.5L321.5 652Z" fill="url(#paint0_linear_1_59)"/>
<path d="M192.644 550L-249 -39L631.5 -104L192.644 550Z" fill="url(#paint1_linear_1_59)"/>
<path d="M192.644 550L7 27H378L192.644 550Z" fill="url(#paint2_linear_1_59)"/>
<rect x="28" y="18" width="328" height="524" rx="34" stroke="#C4C0FF" stroke-width="4"/>
<path d="M27.7568 95.4451L62 360" stroke="#C4C0FF" stroke-width="4"/>
<path d="M314.214 94.1338L281.786 324.866" stroke="#C4C0FF" stroke-width="4"/>
<path d="M285.811 34.2936C291.814 33.6122 297.891 34.1197 303.697 35.7872C309.504 37.4546 314.924 40.2493 319.65 44.0118C324.376 47.7742 328.315 52.4306 331.242 57.7152C334.168 62.9998 336.025 68.8091 336.706 74.8114" stroke="#C4C0FF" stroke-width="4" stroke-linecap="round"/>
<path d="M64.1124 70.9296C61.204 71.184 58.2767 70.7466 55.5698 69.6529C52.8629 68.5592 50.4533 66.8404 48.5379 64.6371C46.6225 62.4337 45.2558 59.8083 44.5496 56.9755C43.8433 54.1428 43.8174 51.1831 44.4742 48.3384C45.1309 45.4937 46.4516 42.8449 48.3282 40.6084C50.2048 38.372 52.5841 36.6114 55.2715 35.4706C57.9589 34.3299 60.8782 33.8414 63.7905 34.0451C66.7029 34.2487 69.5257 35.1387 72.0282 36.6424" stroke="#C4C0FF" stroke-width="4"/>
<path d="M191 298L192.694 307.803L196.267 298.519L196.016 308.464L201.332 300.055L199.146 309.76L206 302.55L201.962 311.642L210.092 305.908L204.358 314.038L213.45 310L206.24 316.854L215.945 314.668L207.536 319.984L217.481 319.733L208.197 323.306L218 325L208.197 326.694L217.481 330.267L207.536 330.016L215.945 335.332L206.24 333.146L213.45 340L204.358 335.962L210.092 344.092L201.962 338.358L206 347.45L199.146 340.24L201.332 349.945L196.016 341.536L196.267 351.481L192.694 342.197L191 352L189.306 342.197L185.733 351.481L185.984 341.536L180.668 349.945L182.854 340.24L176 347.45L180.038 338.358L171.908 344.092L177.642 335.962L168.55 340L175.76 333.146L166.055 335.332L174.464 330.016L164.519 330.267L173.803 326.694L164 325L173.803 323.306L164.519 319.733L174.464 319.984L166.055 314.668L175.76 316.854L168.55 310L177.642 314.038L171.908 305.908L180.038 311.642L176 302.55L182.854 309.76L180.668 300.055L185.984 308.464L185.733 298.519L189.306 307.803L191 298Z" stroke="#C4C0FF" stroke-width="1.5" stroke-linejoin="round"/>
<circle cx="18" cy="16" r="4" fill="#506441"/>
<circle cx="362" cy="16" r="4" fill="#506441"/>
<circle cx="18" cy="544" r="4" fill="#506441"/>
<circle cx="363" cy="544" r="4" fill="#506441"/>
</g>
<g filter="url(#filter0_d_1_59)">
<rect x="3.5" y="575.5" width="377" height="45" rx="6.5" stroke="#F8FFEB" stroke-width="3" shape-rendering="crispEdges"/>
<path d="M317.582 595.177V598.212C317.582 599.843 317.436 601.22 317.144 602.341C316.853 603.462 316.433 604.364 315.887 605.048C315.34 605.731 314.679 606.228 313.904 606.538C313.138 606.839 312.273 606.989 311.306 606.989C310.541 606.989 309.834 606.893 309.187 606.702C308.54 606.511 307.957 606.205 307.437 605.786C306.927 605.358 306.489 604.802 306.125 604.118C305.76 603.435 305.482 602.605 305.291 601.63C305.099 600.655 305.004 599.515 305.004 598.212V595.177C305.004 593.545 305.15 592.178 305.441 591.075C305.742 589.972 306.166 589.088 306.713 588.423C307.26 587.748 307.916 587.265 308.681 586.974C309.456 586.682 310.322 586.536 311.279 586.536C312.054 586.536 312.765 586.632 313.412 586.823C314.068 587.005 314.652 587.302 315.162 587.712C315.672 588.113 316.105 588.651 316.461 589.325C316.825 589.99 317.103 590.806 317.295 591.772C317.486 592.739 317.582 593.873 317.582 595.177ZM315.039 598.622V594.753C315.039 593.86 314.984 593.076 314.875 592.401C314.775 591.718 314.624 591.134 314.424 590.651C314.223 590.168 313.968 589.776 313.658 589.476C313.357 589.175 313.006 588.956 312.605 588.819C312.213 588.673 311.771 588.601 311.279 588.601C310.678 588.601 310.144 588.714 309.68 588.942C309.215 589.161 308.823 589.512 308.504 589.995C308.194 590.478 307.957 591.112 307.793 591.895C307.629 592.679 307.547 593.632 307.547 594.753V598.622C307.547 599.515 307.597 600.304 307.697 600.987C307.806 601.671 307.966 602.263 308.176 602.765C308.385 603.257 308.64 603.662 308.941 603.981C309.242 604.3 309.588 604.537 309.98 604.692C310.381 604.838 310.823 604.911 311.306 604.911C311.926 604.911 312.469 604.793 312.933 604.556C313.398 604.319 313.786 603.949 314.096 603.448C314.415 602.938 314.652 602.286 314.806 601.493C314.961 600.691 315.039 599.734 315.039 598.622ZM324.527 595.518H326.332C327.216 595.518 327.945 595.373 328.519 595.081C329.103 594.78 329.536 594.375 329.818 593.864C330.11 593.345 330.256 592.761 330.256 592.114C330.256 591.349 330.128 590.706 329.873 590.186C329.618 589.667 329.235 589.275 328.724 589.011C328.214 588.746 327.567 588.614 326.783 588.614C326.072 588.614 325.443 588.755 324.896 589.038C324.359 589.311 323.935 589.703 323.625 590.214C323.324 590.724 323.174 591.326 323.174 592.018H320.644C320.644 591.007 320.9 590.086 321.41 589.257C321.92 588.427 322.636 587.767 323.556 587.274C324.486 586.782 325.562 586.536 326.783 586.536C327.986 586.536 329.039 586.75 329.941 587.179C330.844 587.598 331.545 588.227 332.047 589.065C332.548 589.895 332.799 590.929 332.799 592.169C332.799 592.67 332.68 593.208 332.443 593.782C332.215 594.347 331.855 594.876 331.363 595.368C330.88 595.86 330.251 596.266 329.476 596.585C328.702 596.895 327.772 597.05 326.687 597.05H324.527V595.518ZM324.527 597.597V596.079H326.687C327.954 596.079 329.002 596.229 329.832 596.53C330.661 596.831 331.313 597.232 331.787 597.733C332.27 598.235 332.607 598.786 332.799 599.388C332.999 599.98 333.099 600.573 333.099 601.165C333.099 602.095 332.94 602.92 332.621 603.64C332.311 604.36 331.869 604.97 331.295 605.472C330.73 605.973 330.064 606.351 329.299 606.606C328.533 606.862 327.699 606.989 326.797 606.989C325.931 606.989 325.115 606.866 324.349 606.62C323.593 606.374 322.923 606.018 322.34 605.554C321.756 605.08 321.301 604.501 320.972 603.817C320.644 603.125 320.48 602.336 320.48 601.452H323.01C323.01 602.145 323.16 602.751 323.461 603.27C323.771 603.79 324.208 604.196 324.773 604.487C325.347 604.77 326.022 604.911 326.797 604.911C327.571 604.911 328.237 604.779 328.793 604.515C329.358 604.241 329.791 603.831 330.092 603.284C330.402 602.737 330.556 602.049 330.556 601.22C330.556 600.39 330.383 599.711 330.037 599.183C329.691 598.645 329.198 598.248 328.56 597.993C327.931 597.729 327.189 597.597 326.332 597.597H324.527ZM349.629 604.638V606.716H336.599V604.897L343.121 597.638C343.923 596.744 344.543 595.988 344.98 595.368C345.427 594.739 345.737 594.179 345.91 593.686C346.092 593.185 346.183 592.675 346.183 592.155C346.183 591.499 346.047 590.907 345.773 590.378C345.509 589.84 345.117 589.412 344.597 589.093C344.078 588.774 343.449 588.614 342.711 588.614C341.827 588.614 341.088 588.787 340.496 589.134C339.913 589.471 339.475 589.945 339.183 590.556C338.892 591.166 338.746 591.868 338.746 592.661H336.217C336.217 591.54 336.463 590.515 336.955 589.585C337.447 588.655 338.176 587.917 339.142 587.37C340.109 586.814 341.298 586.536 342.711 586.536C343.969 586.536 345.044 586.759 345.937 587.206C346.831 587.643 347.514 588.263 347.988 589.065C348.471 589.858 348.713 590.788 348.713 591.854C348.713 592.438 348.612 593.03 348.412 593.632C348.221 594.224 347.952 594.817 347.605 595.409C347.268 596.002 346.872 596.585 346.416 597.159C345.969 597.733 345.491 598.298 344.98 598.854L339.648 604.638H349.629ZM365.789 600.017V602.095H351.406V600.604L360.32 586.81H362.385L360.17 590.802L354.277 600.017H365.789ZM363.013 586.81V606.716H360.484V586.81H363.013Z" fill="#EAE1D9"/>
<path d="M258.68 600.152C258.68 599.947 258.648 599.765 258.584 599.605C258.525 599.446 258.417 599.3 258.263 599.168C258.108 599.036 257.889 598.908 257.606 598.785C257.328 598.657 256.973 598.528 256.54 598.395C256.066 598.25 255.628 598.088 255.227 597.91C254.831 597.728 254.485 597.518 254.188 597.281C253.892 597.04 253.662 596.764 253.498 596.454C253.334 596.14 253.252 595.777 253.252 595.367C253.252 594.962 253.336 594.592 253.505 594.26C253.678 593.927 253.922 593.64 254.236 593.398C254.555 593.152 254.931 592.963 255.364 592.831C255.797 592.694 256.276 592.626 256.8 592.626C257.538 592.626 258.174 592.763 258.707 593.036C259.245 593.31 259.657 593.676 259.944 594.137C260.236 594.597 260.382 595.105 260.382 595.661H258.68C258.68 595.333 258.609 595.044 258.468 594.793C258.331 594.538 258.121 594.337 257.839 594.191C257.561 594.046 257.207 593.973 256.779 593.973C256.374 593.973 256.036 594.034 255.767 594.157C255.499 594.28 255.298 594.447 255.166 594.656C255.034 594.866 254.968 595.103 254.968 595.367C254.968 595.554 255.011 595.725 255.097 595.88C255.184 596.03 255.316 596.171 255.494 596.304C255.672 596.431 255.895 596.552 256.164 596.666C256.433 596.78 256.749 596.889 257.114 596.994C257.666 597.158 258.146 597.34 258.556 597.541C258.967 597.737 259.308 597.96 259.582 598.211C259.855 598.462 260.06 598.746 260.197 599.065C260.334 599.38 260.402 599.738 260.402 600.139C260.402 600.558 260.318 600.936 260.149 601.273C259.981 601.606 259.739 601.891 259.425 602.128C259.115 602.36 258.741 602.54 258.304 602.668C257.871 602.791 257.388 602.852 256.854 602.852C256.376 602.852 255.904 602.789 255.439 602.661C254.979 602.533 254.56 602.34 254.181 602.08C253.803 601.816 253.502 601.488 253.279 601.096C253.056 600.699 252.944 600.237 252.944 599.708H254.66C254.66 600.032 254.715 600.307 254.824 600.535C254.938 600.763 255.095 600.95 255.296 601.096C255.496 601.237 255.729 601.342 255.993 601.41C256.262 601.478 256.549 601.513 256.854 601.513C257.255 601.513 257.59 601.456 257.859 601.342C258.133 601.228 258.338 601.068 258.474 600.863C258.611 600.658 258.68 600.421 258.68 600.152ZM267.799 599.476H269.508C269.453 600.127 269.271 600.708 268.961 601.219C268.651 601.725 268.216 602.123 267.655 602.415C267.095 602.707 266.413 602.852 265.611 602.852C264.996 602.852 264.442 602.743 263.95 602.524C263.458 602.301 263.036 601.987 262.685 601.581C262.334 601.171 262.066 600.676 261.879 600.098C261.696 599.519 261.605 598.872 261.605 598.156V597.329C261.605 596.614 261.699 595.966 261.886 595.388C262.077 594.809 262.35 594.314 262.706 593.904C263.061 593.49 263.487 593.173 263.984 592.954C264.485 592.735 265.048 592.626 265.673 592.626C266.466 592.626 267.136 592.772 267.682 593.063C268.229 593.355 268.653 593.758 268.954 594.273C269.259 594.788 269.446 595.379 269.514 596.044H267.805C267.76 595.615 267.66 595.249 267.505 594.943C267.354 594.638 267.131 594.406 266.835 594.246C266.539 594.082 266.151 594 265.673 594C265.281 594 264.939 594.073 264.647 594.219C264.356 594.365 264.112 594.579 263.916 594.861C263.72 595.144 263.572 595.492 263.471 595.907C263.376 596.317 263.328 596.787 263.328 597.315V598.156C263.328 598.657 263.371 599.113 263.458 599.523C263.549 599.929 263.686 600.278 263.868 600.569C264.055 600.861 264.292 601.087 264.579 601.246C264.866 601.406 265.21 601.485 265.611 601.485C266.099 601.485 266.493 601.408 266.794 601.253C267.099 601.098 267.329 600.872 267.484 600.576C267.644 600.275 267.749 599.908 267.799 599.476ZM279.003 597.466V598.013C279.003 598.765 278.905 599.439 278.709 600.036C278.513 600.633 278.233 601.141 277.868 601.56C277.508 601.98 277.075 602.301 276.569 602.524C276.063 602.743 275.503 602.852 274.888 602.852C274.277 602.852 273.719 602.743 273.213 602.524C272.711 602.301 272.276 601.98 271.907 601.56C271.538 601.141 271.251 600.633 271.046 600.036C270.845 599.439 270.745 598.765 270.745 598.013V597.466C270.745 596.714 270.845 596.042 271.046 595.449C271.246 594.852 271.529 594.344 271.893 593.925C272.263 593.501 272.698 593.18 273.199 592.961C273.705 592.738 274.263 592.626 274.874 592.626C275.489 592.626 276.05 592.738 276.555 592.961C277.061 593.18 277.497 593.501 277.861 593.925C278.226 594.344 278.506 594.852 278.702 595.449C278.902 596.042 279.003 596.714 279.003 597.466ZM277.287 598.013V597.452C277.287 596.896 277.232 596.406 277.123 595.982C277.018 595.554 276.861 595.196 276.651 594.909C276.446 594.617 276.193 594.399 275.892 594.253C275.592 594.102 275.252 594.027 274.874 594.027C274.496 594.027 274.158 594.102 273.862 594.253C273.566 594.399 273.313 594.617 273.103 594.909C272.898 595.196 272.741 595.554 272.632 595.982C272.522 596.406 272.468 596.896 272.468 597.452V598.013C272.468 598.569 272.522 599.061 272.632 599.489C272.741 599.918 272.901 600.28 273.11 600.576C273.324 600.868 273.58 601.089 273.876 601.239C274.172 601.385 274.509 601.458 274.888 601.458C275.27 601.458 275.61 601.385 275.906 601.239C276.202 601.089 276.453 600.868 276.658 600.576C276.863 600.28 277.018 599.918 277.123 599.489C277.232 599.061 277.287 598.569 277.287 598.013ZM280.719 592.763H284.239C284.996 592.763 285.64 592.877 286.174 593.104C286.707 593.332 287.115 593.67 287.397 594.116C287.684 594.558 287.828 595.105 287.828 595.757C287.828 596.254 287.737 596.691 287.555 597.069C287.372 597.448 287.115 597.767 286.782 598.026C286.449 598.282 286.053 598.48 285.593 598.621L285.073 598.874H281.908L281.894 597.514H284.266C284.677 597.514 285.018 597.441 285.292 597.295C285.565 597.149 285.77 596.951 285.907 596.7C286.048 596.445 286.119 596.158 286.119 595.839C286.119 595.492 286.051 595.192 285.914 594.936C285.782 594.677 285.577 594.478 285.299 594.342C285.021 594.2 284.667 594.13 284.239 594.13H282.434V602.716H280.719V592.763ZM286.399 602.716L284.061 598.245L285.859 598.238L288.231 602.627V602.716H286.399ZM296.052 601.355V602.716H290.767V601.355H296.052ZM291.253 592.763V602.716H289.537V592.763H291.253ZM295.361 596.919V598.259H290.767V596.919H295.361ZM296.017 592.763V594.13H290.767V592.763H296.017Z" fill="#EAE1D9"/>
<path d="M95.2234 599.004H92.6326V597.643H95.2234C95.6746 597.643 96.0392 597.571 96.3172 597.425C96.5952 597.279 96.798 597.078 96.9256 596.823C97.0578 596.563 97.1238 596.267 97.1238 595.935C97.1238 595.62 97.0578 595.326 96.9256 595.053C96.798 594.775 96.5952 594.551 96.3172 594.383C96.0392 594.214 95.6746 594.13 95.2234 594.13H93.159V602.716H91.4432V592.763H95.2234C95.9936 592.763 96.6476 592.899 97.1854 593.173C97.7277 593.442 98.1401 593.815 98.4227 594.294C98.7052 594.768 98.8465 595.31 98.8465 595.921C98.8465 596.563 98.7052 597.115 98.4227 597.575C98.1401 598.035 97.7277 598.389 97.1854 598.635C96.6476 598.881 95.9936 599.004 95.2234 599.004ZM106.619 601.355V602.716H101.622V601.355H106.619ZM102.1 592.763V602.716H100.385V592.763H102.1ZM111.958 594.089L108.984 602.716H107.186L110.932 592.763H112.081L111.958 594.089ZM114.446 602.716L111.466 594.089L111.336 592.763H112.491L116.251 602.716H114.446ZM114.303 599.024V600.385H108.888V599.024H114.303ZM117.536 592.763L119.846 597.514L122.157 592.763H124.057L120.708 599.052V602.716H118.978V599.052L115.629 592.763H117.536Z" fill="#EAE1D9"/>
<path d="M140.443 591.763H143.964C144.72 591.763 145.365 591.877 145.898 592.104C146.431 592.332 146.839 592.67 147.122 593.116C147.409 593.558 147.553 594.105 147.553 594.757C147.553 595.254 147.461 595.691 147.279 596.069C147.097 596.448 146.839 596.767 146.507 597.026C146.174 597.282 145.777 597.48 145.317 597.621L144.798 597.874H141.633L141.619 596.514H143.991C144.401 596.514 144.743 596.441 145.016 596.295C145.29 596.149 145.495 595.951 145.632 595.7C145.773 595.445 145.844 595.158 145.844 594.839C145.844 594.492 145.775 594.192 145.638 593.936C145.506 593.677 145.301 593.478 145.023 593.342C144.745 593.2 144.392 593.13 143.964 593.13H142.159V601.716H140.443V591.763ZM146.124 601.716L143.786 597.245L145.584 597.238L147.956 601.627V601.716H146.124ZM155.776 600.355V601.716H150.492V600.355H155.776ZM150.977 591.763V601.716H149.262V591.763H150.977ZM155.086 595.919V597.259H150.492V595.919H155.086ZM155.742 591.763V593.13H150.492V591.763H155.742ZM160.958 598.004H158.367V596.643H160.958C161.409 596.643 161.774 596.571 162.052 596.425C162.33 596.279 162.532 596.078 162.66 595.823C162.792 595.563 162.858 595.267 162.858 594.935C162.858 594.62 162.792 594.326 162.66 594.053C162.532 593.775 162.33 593.551 162.052 593.383C161.774 593.214 161.409 593.13 160.958 593.13H158.893V601.716H157.178V591.763H160.958C161.728 591.763 162.382 591.899 162.92 592.173C163.462 592.442 163.874 592.815 164.157 593.294C164.44 593.768 164.581 594.31 164.581 594.921C164.581 595.563 164.44 596.115 164.157 596.575C163.874 597.035 163.462 597.389 162.92 597.635C162.382 597.881 161.728 598.004 160.958 598.004ZM172.353 600.355V601.716H167.356V600.355H172.353ZM167.835 591.763V601.716H166.119V591.763H167.835ZM177.692 593.089L174.719 601.716H172.921L176.667 591.763H177.815L177.692 593.089ZM180.18 601.716L177.2 593.089L177.07 591.763H178.225L181.985 601.716H180.18ZM180.037 598.024V599.385H174.623V598.024H180.037ZM183.27 591.763L185.581 596.514L187.891 591.763H189.792L186.442 598.052V601.716H184.713V598.052L181.363 591.763H183.27Z" fill="#EAE1D9"/>
<path d="M85.4315 597.216L75.6815 602.845L75.6815 591.587L85.4315 597.216Z" fill="#D9D9D9"/>
<g clip-path="url(#clip1_1_59)">
<mask id="path-23-outside-1_1_59" maskUnits="userSpaceOnUse" x="10.717" y="576.013" width="44" height="44" fill="black">
<rect fill="white" x="10.717" y="576.013" width="44" height="44"/>
<path d="M12.7326 597.222C12.5762 601.175 13.5958 605.086 15.6623 608.46C17.7288 611.833 20.7495 614.518 24.3421 616.175C27.9348 617.831 31.938 618.385 35.8455 617.767C39.7531 617.148 43.3892 615.384 46.2942 612.698C49.1991 610.012 51.2422 606.525 52.1652 602.678C53.0881 598.831 52.8493 594.797 51.4791 591.086C50.1088 587.374 47.6687 584.153 44.4672 581.828C41.2658 579.504 37.4469 578.181 33.4937 578.028C28.1958 577.822 23.0328 579.728 19.1398 583.327C15.2467 586.927 12.9422 591.924 12.7326 597.222ZM22.4215 594.194C22.1636 593.935 21.9883 593.606 21.9175 593.247C21.8468 592.889 21.884 592.517 22.0242 592.179C22.1645 591.842 22.4016 591.553 22.7057 591.351C23.0097 591.148 23.3671 591.039 23.7326 591.039C24.0981 591.039 24.4555 591.148 24.7595 591.351C25.0636 591.553 25.3007 591.842 25.441 592.179C25.5812 592.517 25.6184 592.889 25.5477 593.247C25.477 593.606 25.3016 593.935 25.0437 594.194C24.8718 594.367 24.6675 594.504 24.4425 594.598C24.2175 594.691 23.9763 594.739 23.7326 594.739C23.489 594.739 23.2477 594.691 23.0227 594.598C22.7977 594.504 22.5934 594.367 22.4215 594.194ZM39.4271 605.722L41.4548 607.739C41.4792 607.759 41.4989 607.784 41.5124 607.812C41.5259 607.84 41.5329 607.871 41.5329 607.903C41.5329 607.934 41.5259 607.965 41.5124 607.994C41.4989 608.022 41.4792 608.047 41.4548 608.067L33.9493 615.6C33.9312 615.624 33.9077 615.644 33.8807 615.657C33.8537 615.671 33.8239 615.678 33.7937 615.678C33.7635 615.678 33.7338 615.671 33.7068 615.657C33.6798 615.644 33.6563 615.624 33.6382 615.6L31.6104 613.583C31.5874 613.566 31.5687 613.543 31.5558 613.517C31.543 613.491 31.5363 613.462 31.5363 613.433C31.5363 613.404 31.543 613.376 31.5558 613.35C31.5687 613.324 31.5874 613.301 31.6104 613.283L33.9548 610.928L23.0159 600.006C22.9918 599.988 22.9722 599.964 22.9587 599.937C22.9452 599.91 22.9382 599.88 22.9382 599.85C22.9382 599.82 22.9452 599.79 22.9587 599.763C22.9722 599.736 22.9918 599.713 23.0159 599.695L25.4937 597.206C25.5129 597.18 25.5377 597.16 25.5661 597.146C25.5945 597.131 25.6259 597.124 25.6576 597.124C25.6894 597.124 25.7207 597.131 25.7491 597.146C25.7776 597.16 25.8023 597.18 25.8215 597.206L36.7826 608.117L39.1548 605.733C39.1897 605.696 39.2378 605.674 39.2887 605.672C39.3396 605.67 39.3893 605.688 39.4271 605.722ZM41.3993 595.056L43.4715 597.117C43.4958 597.136 43.5154 597.16 43.5289 597.188C43.5424 597.216 43.5494 597.247 43.5494 597.278C43.5494 597.309 43.5424 597.339 43.5289 597.367C43.5154 597.395 43.4958 597.42 43.4715 597.439L37.1826 603.756C37.1634 603.78 37.1389 603.8 37.111 603.813C37.0831 603.827 37.0525 603.833 37.0215 603.833C36.9905 603.833 36.9599 603.827 36.932 603.813C36.9041 603.8 36.8796 603.78 36.8604 603.756L28.0159 594.939C27.9916 594.919 27.9719 594.894 27.9584 594.866C27.9449 594.837 27.9379 594.806 27.9379 594.775C27.9379 594.744 27.9449 594.713 27.9584 594.684C27.9719 594.656 27.9916 594.631 28.0159 594.611L30.4937 592.122C30.5124 592.098 30.5364 592.078 30.5638 592.065C30.5913 592.051 30.6215 592.044 30.6521 592.044C30.6826 592.044 30.7128 592.051 30.7403 592.065C30.7677 592.078 30.7917 592.098 30.8104 592.122L37.4326 598.717L41.0937 595.045C41.1138 595.024 41.1379 595.007 41.1647 594.997C41.1914 594.986 41.2202 594.981 41.249 594.982C41.2778 594.983 41.3061 594.99 41.332 595.003C41.3579 595.015 41.3808 595.033 41.3993 595.056ZM33.8882 580.406L35.9048 582.417C36.0048 582.517 35.9993 582.617 35.9048 582.728L33.5493 585.094L40.2159 591.711C40.2412 591.73 40.2618 591.754 40.2759 591.782C40.2901 591.81 40.2974 591.841 40.2974 591.872C40.2974 591.904 40.2901 591.935 40.2759 591.963C40.2618 591.991 40.2412 592.015 40.2159 592.033L37.7548 594.511C37.7367 594.535 37.7132 594.555 37.6862 594.568C37.6592 594.582 37.6295 594.589 37.5993 594.589C37.5691 594.589 37.5393 594.582 37.5123 594.568C37.4853 594.555 37.4618 594.535 37.4437 594.511L30.7771 587.895L28.4493 590.239C28.4316 590.262 28.4089 590.281 28.3829 590.294C28.3569 590.306 28.3283 590.313 28.2993 590.313C28.2703 590.313 28.2416 590.306 28.2156 590.294C28.1896 590.281 28.1669 590.262 28.1493 590.239L26.1326 588.228C26.1095 588.21 26.0908 588.186 26.078 588.16C26.0651 588.133 26.0584 588.104 26.0584 588.075C26.0584 588.046 26.0651 588.017 26.078 587.99C26.0908 587.964 26.1095 587.941 26.1326 587.922L33.5993 580.422C33.6355 580.382 33.6862 580.358 33.7403 580.354C33.7944 580.351 33.8475 580.37 33.8882 580.406Z"/>
</mask>
<path d="M12.7326 597.222C12.5762 601.175 13.5958 605.086 15.6623 608.46C17.7288 611.833 20.7495 614.518 24.3421 616.175C27.9348 617.831 31.938 618.385 35.8455 617.767C39.7531 617.148 43.3892 615.384 46.2942 612.698C49.1991 610.012 51.2422 606.525 52.1652 602.678C53.0881 598.831 52.8493 594.797 51.4791 591.086C50.1088 587.374 47.6687 584.153 44.4672 581.828C41.2658 579.504 37.4469 578.181 33.4937 578.028C28.1958 577.822 23.0328 579.728 19.1398 583.327C15.2467 586.927 12.9422 591.924 12.7326 597.222ZM22.4215 594.194C22.1636 593.935 21.9883 593.606 21.9175 593.247C21.8468 592.889 21.884 592.517 22.0242 592.179C22.1645 591.842 22.4016 591.553 22.7057 591.351C23.0097 591.148 23.3671 591.039 23.7326 591.039C24.0981 591.039 24.4555 591.148 24.7595 591.351C25.0636 591.553 25.3007 591.842 25.441 592.179C25.5812 592.517 25.6184 592.889 25.5477 593.247C25.477 593.606 25.3016 593.935 25.0437 594.194C24.8718 594.367 24.6675 594.504 24.4425 594.598C24.2175 594.691 23.9763 594.739 23.7326 594.739C23.489 594.739 23.2477 594.691 23.0227 594.598C22.7977 594.504 22.5934 594.367 22.4215 594.194ZM39.4271 605.722L41.4548 607.739C41.4792 607.759 41.4989 607.784 41.5124 607.812C41.5259 607.84 41.5329 607.871 41.5329 607.903C41.5329 607.934 41.5259 607.965 41.5124 607.994C41.4989 608.022 41.4792 608.047 41.4548 608.067L33.9493 615.6C33.9312 615.624 33.9077 615.644 33.8807 615.657C33.8537 615.671 33.8239 615.678 33.7937 615.678C33.7635 615.678 33.7338 615.671 33.7068 615.657C33.6798 615.644 33.6563 615.624 33.6382 615.6L31.6104 613.583C31.5874 613.566 31.5687 613.543 31.5558 613.517C31.543 613.491 31.5363 613.462 31.5363 613.433C31.5363 613.404 31.543 613.376 31.5558 613.35C31.5687 613.324 31.5874 613.301 31.6104 613.283L33.9548 610.928L23.0159 600.006C22.9918 599.988 22.9722 599.964 22.9587 599.937C22.9452 599.91 22.9382 599.88 22.9382 599.85C22.9382 599.82 22.9452 599.79 22.9587 599.763C22.9722 599.736 22.9918 599.713 23.0159 599.695L25.4937 597.206C25.5129 597.18 25.5377 597.16 25.5661 597.146C25.5945 597.131 25.6259 597.124 25.6576 597.124C25.6894 597.124 25.7207 597.131 25.7491 597.146C25.7776 597.16 25.8023 597.18 25.8215 597.206L36.7826 608.117L39.1548 605.733C39.1897 605.696 39.2378 605.674 39.2887 605.672C39.3396 605.67 39.3893 605.688 39.4271 605.722ZM41.3993 595.056L43.4715 597.117C43.4958 597.136 43.5154 597.16 43.5289 597.188C43.5424 597.216 43.5494 597.247 43.5494 597.278C43.5494 597.309 43.5424 597.339 43.5289 597.367C43.5154 597.395 43.4958 597.42 43.4715 597.439L37.1826 603.756C37.1634 603.78 37.1389 603.8 37.111 603.813C37.0831 603.827 37.0525 603.833 37.0215 603.833C36.9905 603.833 36.9599 603.827 36.932 603.813C36.9041 603.8 36.8796 603.78 36.8604 603.756L28.0159 594.939C27.9916 594.919 27.9719 594.894 27.9584 594.866C27.9449 594.837 27.9379 594.806 27.9379 594.775C27.9379 594.744 27.9449 594.713 27.9584 594.684C27.9719 594.656 27.9916 594.631 28.0159 594.611L30.4937 592.122C30.5124 592.098 30.5364 592.078 30.5638 592.065C30.5913 592.051 30.6215 592.044 30.6521 592.044C30.6826 592.044 30.7128 592.051 30.7403 592.065C30.7677 592.078 30.7917 592.098 30.8104 592.122L37.4326 598.717L41.0937 595.045C41.1138 595.024 41.1379 595.007 41.1647 594.997C41.1914 594.986 41.2202 594.981 41.249 594.982C41.2778 594.983 41.3061 594.99 41.332 595.003C41.3579 595.015 41.3808 595.033 41.3993 595.056ZM33.8882 580.406L35.9048 582.417C36.0048 582.517 35.9993 582.617 35.9048 582.728L33.5493 585.094L40.2159 591.711C40.2412 591.73 40.2618 591.754 40.2759 591.782C40.2901 591.81 40.2974 591.841 40.2974 591.872C40.2974 591.904 40.2901 591.935 40.2759 591.963C40.2618 591.991 40.2412 592.015 40.2159 592.033L37.7548 594.511C37.7367 594.535 37.7132 594.555 37.6862 594.568C37.6592 594.582 37.6295 594.589 37.5993 594.589C37.5691 594.589 37.5393 594.582 37.5123 594.568C37.4853 594.555 37.4618 594.535 37.4437 594.511L30.7771 587.895L28.4493 590.239C28.4316 590.262 28.4089 590.281 28.3829 590.294C28.3569 590.306 28.3283 590.313 28.2993 590.313C28.2703 590.313 28.2416 590.306 28.2156 590.294C28.1896 590.281 28.1669 590.262 28.1493 590.239L26.1326 588.228C26.1095 588.21 26.0908 588.186 26.078 588.16C26.0651 588.133 26.0584 588.104 26.0584 588.075C26.0584 588.046 26.0651 588.017 26.078 587.99C26.0908 587.964 26.1095 587.941 26.1326 587.922L33.5993 580.422C33.6355 580.382 33.6862 580.358 33.7403 580.354C33.7944 580.351 33.8475 580.37 33.8882 580.406Z" stroke="#FFDAD8" stroke-width="4" mask="url(#path-23-outside-1_1_59)"/>
</g>
</g>
<g filter="url(#filter1_d_1_59)">
<circle cx="262" cy="132" r="20" fill="#CEC5BD"/>
</g>
<g filter="url(#filter2_d_1_59)">
<circle cx="198" cy="132" r="20" fill="#FFD394"/>
<circle cx="198" cy="132" r="19" stroke="#FFEDEA" stroke-width="2"/>
</g>
<g filter="url(#filter3_d_1_59)">
<circle cx="230" cy="188" r="20" fill="#CEC5BD"/>
</g>
<path d="M36 374.51C36 373.038 37.863 372.4 38.7653 373.563L54.3199 393.604C55.4089 395.007 56 396.733 56 398.509V527.519C56 528.337 55.3367 529 54.5185 529V529C44.291 529 36 520.709 36 510.481V374.51Z" fill="url(#paint3_linear_1_59)"/>
<path d="M349 131.399C349 129.159 345.882 128.612 345.119 130.718L325.478 184.966C325.162 185.84 325 186.761 325 187.69V527.222C325 528.204 325.796 529 326.778 529V529C339.051 529 349 519.051 349 506.778V131.399Z" fill="url(#paint4_linear_1_59)"/>
<defs>
<filter id="filter0_d_1_59" x="0" y="572" width="388" height="56" filterUnits="userSpaceOnUse" color-interpolation-filters="sRGB">
<feFlood flood-opacity="0" result="BackgroundImageFix"/>
<feColorMatrix in="SourceAlpha" type="matrix" values="0 0 0 0 0 0 0 0 0 0 0 0 0 0 0 0 0 0 127 0" result="hardAlpha"/>
<feOffset dx="2" dy="2"/>
<feGaussianBlur stdDeviation="2"/>
<feComposite in2="hardAlpha" operator="out"/>
<feColorMatrix type="matrix" values="0 0 0 0 0.0745098 0 0 0 0 0.0509804 0 0 0 0 0.0196078 0 0 0 1 0"/>
<feBlend mode="normal" in2="BackgroundImageFix" result="effect1_dropShadow_1_59"/>
<feBlend mode="normal" in="SourceGraphic" in2="effect1_dropShadow_1_59" result="shape"/>
</filter>
<filter id="filter1_d_1_59" x="240" y="112" width="42" height="42" filterUnits="userSpaceOnUse" color-interpolation-filters="sRGB">
<feFlood flood-opacity="0" result="BackgroundImageFix"/>
<feColorMatrix in="SourceAlpha" type="matrix" values="0 0 0 0 0 0 0 0 0 0 0 0 0 0 0 0 0 0 127 0" result="hardAlpha"/>
<feOffset dx="-2" dy="2"/>
<feComposite in2="hardAlpha" operator="out"/>
<feColorMatrix type="matrix" values="0 0 0 0 0.713726 0 0 0 0 0.662745 0 0 0 0 0.603922 0 0 0 1 0"/>
<feBlend mode="normal" in2="BackgroundImageFix" result="effect1_dropShadow_1_59"/>
<feBlend mode="normal" in="SourceGraphic" in2="effect1_dropShadow_1_59" result="shape"/>
</filter>
<filter id="filter2_d_1_59" x="176" y="112" width="42" height="42" filterUnits="userSpaceOnUse" color-interpolation-filters="sRGB">
<feFlood flood-opacity="0" result="BackgroundImageFix"/>
<feColorMatrix in="SourceAlpha" type="matrix" values="0 0 0 0 0 0 0 0 0 0 0 0 0 0 0 0 0 0 127 0" result="hardAlpha"/>
<feOffset dx="-2" dy="2"/>
<feComposite in2="hardAlpha" operator="out"/>
<feColorMatrix type="matrix" values="0 0 0 0 1 0 0 0 0 0.827451 0 0 0 0 0.580392 0 0 0 1 0"/>
<feBlend mode="normal" in2="BackgroundImageFix" result="effect1_dropShadow_1_59"/>
<feBlend mode="normal" in="SourceGraphic" in2="effect1_dropShadow_1_59" result="shape"/>
</filter>
<filter id="filter3_d_1_59" x="208" y="168" width="42" height="42" filterUnits="userSpaceOnUse" color-interpolation-filters="sRGB">
<feFlood flood-opacity="0" result="BackgroundImageFix"/>
<feColorMatrix in="SourceAlpha" type="matrix" values="0 0 0 0 0 0 0 0 0 0 0 0 0 0 0 0 0 0 127 0" result="hardAlpha"/>
<feOffset dx="-2" dy="2"/>
<feComposite in2="hardAlpha" operator="out"/>
<feColorMatrix type="matrix" values="0 0 0 0 0.713726 0 0 0 0 0.662745 0 0 0 0 0.603922 0 0 0 1 0"/>
<feBlend mode="normal" in2="BackgroundImageFix" result="effect1_dropShadow_1_59"/>
<feBlend mode="normal" in="SourceGraphic" in2="effect1_dropShadow_1_59" result="shape"/>
</filter>
<linearGradient id="paint0_linear_1_59" x1="330.501" y1="27" x2="330.501" y2="549.353" gradientUnits="userSpaceOnUse">
<stop offset="0.13" stop-color="#EAE1D9"/>
<stop offset="0.979167" stop-color="#819770"/>
</linearGradient>
<linearGradient id="paint1_linear_1_59" x1="330.501" y1="27" x2="330.501" y2="549.353" gradientUnits="userSpaceOnUse">
<stop stop-color="#EAE1D9"/>
<stop offset="0.979167" stop-color="#687D58"/>
</linearGradient>
<linearGradient id="paint2_linear_1_59" x1="330.5" y1="27" x2="330.5" y2="549.353" gradientUnits="userSpaceOnUse">
<stop stop-color="#EAE1D9"/>
<stop offset="0.979167" stop-color="#B47B7B"/>
</linearGradient>
<linearGradient id="paint3_linear_1_59" x1="72.8572" y1="440.513" x2="35.4392" y2="447.32" gradientUnits="userSpaceOnUse">
<stop offset="0.38" stop-color="#BBC3FF"/>
<stop offset="1" stop-color="#9B8F80"/>
</linearGradient>
<linearGradient id="paint4_linear_1_59" x1="304.771" y1="301.383" x2="350.827" y2="305.291" gradientUnits="userSpaceOnUse">
<stop offset="0.38" stop-color="#BBC3FF"/>
<stop offset="1" stop-color="#9B8F80"/>
</linearGradient>
<clipPath id="clip0_1_59">
<rect x="2" width="380" height="560" rx="8" fill="white"/>
</clipPath>
<clipPath id="clip1_1_59">
<rect width="40" height="40" fill="white" transform="translate(12.7158 618) rotate(-90)"/>
</clipPath>
</defs>
</svg>
